<svg id="Layer_1" data-name="Layer 1" xmlns="http://www.w3.org/2000/svg" viewBox="0 0 779.25 151.54"><title>TNQ_logo_1</title><path d="M46.52,108H36.65v-88H4.19V11H79v9H46.52Z" transform="translate(-4.19 -8.57)" style="fill:#dc1e3d"/><path d="M103.92,99h51.92v9H94.06V11H154.2v9H103.92v33h47v9h-47Z" transform="translate(-4.19 -8.57)"/><path d="M255.17,92.68a37.66,37.66,0,0,1-6.1,7,38.58,38.58,0,0,1-8.29,5.69,46.84,46.84,0,0,1-10.07,3.76,46.15,46.15,0,0,1-11.44,1.37,52,52,0,0,1-20.07-3.83,49,49,0,0,1-16-10.62,48.5,48.5,0,0,1-10.61-16.1,53,53,0,0,1-3.84-20.41,53,53,0,0,1,3.84-20.41A48.1,48.1,0,0,1,199.2,12.4a52,52,0,0,1,20.07-3.83,48.94,48.94,0,0,1,18.09,3.56,36.51,36.51,0,0,1,15.48,11.78l-8.63,6.44a24.15,24.15,0,0,0-4.11-4.66,30.5,30.5,0,0,0-6-4.11,38.1,38.1,0,0,0-7.2-2.88,27.76,27.76,0,0,0-7.67-1.09A39.36,39.36,0,0,0,202.56,21,38.21,38.21,0,0,0,190,30.21a40.38,40.38,0,0,0-7.87,13.36,47.85,47.85,0,0,0,0,31.92A40.38,40.38,0,0,0,190,88.85,38.07,38.07,0,0,0,202.56,98a39.36,39.36,0,0,0,16.71,3.42,42.23,42.23,0,0,0,7.61-.68,32,32,0,0,0,7.39-2.33A28,28,0,0,0,241.12,94a33,33,0,0,0,6-7.06Z" transform="translate(-4.19 -8.57)"/><path d="M271.74,11h9.87V53.09h52.88V11h9.86v97h-9.86V62.13H281.61V108h-9.87Z" transform="translate(-4.19 -8.57)"/><path d="M440.8,93.23h.27V11h9.87v97H438.61L380.79,25h-.27v83h-9.87V11H383Z" transform="translate(-4.19 -8.57)" style="fill:#dc1e3d"/><path d="M487.1,108h-9.86V11h9.86Z" transform="translate(-4.19 -8.57)"/><path d="M611.36,108H555.88a50.66,50.66,0,0,1-19.53-3.7A46.73,46.73,0,0,1,520.8,94a47.62,47.62,0,0,1-10.27-15.76,52.41,52.41,0,0,1-3.7-19.93,52.46,52.46,0,0,1,3.7-19.94A47.68,47.68,0,0,1,520.8,22.61a46.58,46.58,0,0,1,15.55-10.34,53,53,0,0,1,38.91,0,46.48,46.48,0,0,1,15.55,10.34,47.55,47.55,0,0,1,10.28,15.75,52.65,52.65,0,0,1,3.7,19.94,50.72,50.72,0,0,1-5.42,23.63Q594,92.42,582,98.71V99h29.32ZM517.52,58.3a45.59,45.59,0,0,0,2.6,15.41,39.31,39.31,0,0,0,7.54,13,36.53,36.53,0,0,0,12.05,9,40.25,40.25,0,0,0,32.2,0,36.74,36.74,0,0,0,12.05-9,39.48,39.48,0,0,0,7.54-13,47,47,0,0,0,0-30.83A39.43,39.43,0,0,0,584,29.94a36.46,36.46,0,0,0-12.05-9,40.25,40.25,0,0,0-32.2,0,36.26,36.26,0,0,0-12.05,9,39.26,39.26,0,0,0-7.54,12.94A45.64,45.64,0,0,0,517.52,58.3Z" transform="translate(-4.19 -8.57)" style="fill:#dc1e3d"/><path d="M697,71.86a61.76,61.76,0,0,1-1.44,12.81,34.65,34.65,0,0,1-5.41,12.54,30.94,30.94,0,0,1-10.89,9.52q-6.93,3.76-17.75,3.76t-17.81-3.76a31.13,31.13,0,0,1-10.82-9.52,34.48,34.48,0,0,1-5.41-12.54A61.76,61.76,0,0,1,626,71.86V11h9.86V70.76a46,46,0,0,0,1.37,12,29.57,29.57,0,0,0,3.63,8.43A20.07,20.07,0,0,0,646,96.59a26.77,26.77,0,0,0,5.62,3.08,23.42,23.42,0,0,0,5.41,1.44,35,35,0,0,0,4.52.34,36,36,0,0,0,4.46-.34,23.42,23.42,0,0,0,5.48-1.44,26.47,26.47,0,0,0,5.61-3.08,19.91,19.91,0,0,0,5.07-5.41,29,29,0,0,0,3.63-8.43,45.52,45.52,0,0,0,1.37-12V11H697Z" transform="translate(-4.19 -8.57)"/><path d="M731.51,99h51.92v9H721.65V11h60.14v9H731.51v33h47v9h-47Z" transform="translate(-4.19 -8.57)"/><path d="M24.76,135.75H20v9.66a5.22,5.22,0,0,0,.17,1.49,2.16,2.16,0,0,0,.49.89,1.78,1.78,0,0,0,.75.44,3.63,3.63,0,0,0,1,.12,4.45,4.45,0,0,0,1.22-.18,5.1,5.1,0,0,0,1.15-.45l.11,2.13a7.34,7.34,0,0,1-3.11.6,5.7,5.7,0,0,1-1.39-.18,3.13,3.13,0,0,1-1.31-.66,3.69,3.69,0,0,1-1-1.33,5.32,5.32,0,0,1-.38-2.21V135.75H14.26v-2.1h3.47V129H20v4.62h4.72Z" transform="translate(-4.19 -8.57)"/><path d="M27.91,123.57h2.31v12.7h.07a5.36,5.36,0,0,1,1-1.22,6.35,6.35,0,0,1,1.33-1,7.08,7.08,0,0,1,1.56-.63,5.76,5.76,0,0,1,1.62-.23,6,6,0,0,1,4.66,1.66,6.84,6.84,0,0,1,1.5,4.74V150H39.63V141a7.68,7.68,0,0,0-.94-4.18c-.63-1-1.8-1.45-3.5-1.45a9.85,9.85,0,0,0-1,.14,4.24,4.24,0,0,0-1.7.77,5.65,5.65,0,0,0-1.59,1.89,7.21,7.21,0,0,0-.7,3.5V150H27.91Z" transform="translate(-4.19 -8.57)"/><path d="M49,142.47a7.21,7.21,0,0,0,.59,2.31,6.09,6.09,0,0,0,1.3,1.87,6,6,0,0,0,1.85,1.24,5.56,5.56,0,0,0,2.28.46,5.84,5.84,0,0,0,3.2-.86,6.39,6.39,0,0,0,2-2L62,147a8.75,8.75,0,0,1-3.23,2.66,9,9,0,0,1-3.8.81,8.77,8.77,0,0,1-3.38-.65,7.91,7.91,0,0,1-2.68-1.8,8.61,8.61,0,0,1-1.76-2.73,9,9,0,0,1-.65-3.43,9.14,9.14,0,0,1,.63-3.43,8.25,8.25,0,0,1,1.75-2.73,8.41,8.41,0,0,1,9.2-1.79,7.27,7.27,0,0,1,4,4.36,9.46,9.46,0,0,1,.53,3.17v1.05Zm11.13-1.89a5.25,5.25,0,0,0-1.4-3.8,5.18,5.18,0,0,0-3.92-1.45,5.43,5.43,0,0,0-2.17.44,6.14,6.14,0,0,0-1.84,1.17,6.07,6.07,0,0,0-1.26,1.68,4.38,4.38,0,0,0-.47,2Z" transform="translate(-4.19 -8.57)"/><path d="M82.65,147.19l5-13.54h2.8L82.26,154.3a8.46,8.46,0,0,1-1.87,3,4.5,4.5,0,0,1-3.27,1.12c-.35,0-.71,0-1.07,0a4,4,0,0,1-1.07-.21l.25-2.24a3.68,3.68,0,0,0,1.75.39,2.46,2.46,0,0,0,1.92-.77,6.66,6.66,0,0,0,1.23-2.17l1.19-3.15L74.6,133.65h2.9Z" transform="translate(-4.19 -8.57)"/><path d="M95,142.47a7.21,7.21,0,0,0,.59,2.31,6.09,6.09,0,0,0,1.3,1.87,6,6,0,0,0,1.85,1.24,5.56,5.56,0,0,0,2.28.46,5.84,5.84,0,0,0,3.2-.86,6.39,6.39,0,0,0,2-2l1.78,1.47a8.83,8.83,0,0,1-3.23,2.66,9,9,0,0,1-3.8.81,8.77,8.77,0,0,1-3.38-.65A7.91,7.91,0,0,1,95,148a8.61,8.61,0,0,1-1.76-2.73,8.77,8.77,0,0,1-.65-3.43,9.14,9.14,0,0,1,.63-3.43A8.25,8.25,0,0,1,95,135.68a8.41,8.41,0,0,1,9.2-1.79,7.27,7.27,0,0,1,4,4.36,9.46,9.46,0,0,1,.53,3.17v1.05Zm11.13-1.89a5.25,5.25,0,0,0-1.4-3.8,5.18,5.18,0,0,0-3.92-1.45,5.43,5.43,0,0,0-2.17.44,6.14,6.14,0,0,0-1.84,1.17,6.07,6.07,0,0,0-1.26,1.68,4.38,4.38,0,0,0-.47,2Z" transform="translate(-4.19 -8.57)"/><path d="M123.39,140v-.42q0-4.23-4.2-4.23a7.28,7.28,0,0,0-5,1.92l-1.4-1.64q2.31-2.38,6.93-2.38a7.37,7.37,0,0,1,2.3.35,5.07,5.07,0,0,1,1.9,1.07,5.25,5.25,0,0,1,1.3,1.8,6.2,6.2,0,0,1,.49,2.59v7.31q0,.94.09,2c0,.69.12,1.26.19,1.7h-2.24c-.07-.4-.12-.83-.16-1.3s0-.92,0-1.36h-.07a6.28,6.28,0,0,1-2.4,2.36,7.25,7.25,0,0,1-3.38.72,7.4,7.4,0,0,1-2.1-.3,5.46,5.46,0,0,1-1.8-.91,4.81,4.81,0,0,1-1.26-1.5,5.11,5.11,0,0,1,.56-5.22,6.37,6.37,0,0,1,2.59-1.7,13.22,13.22,0,0,1,3.33-.7c1.17-.09,2.25-.14,3.23-.14Zm-1.19,1.89q-.87,0-2.19.09a13,13,0,0,0-2.52.42,5.62,5.62,0,0,0-2.06,1,2.34,2.34,0,0,0-.86,1.93,2.71,2.71,0,0,0,.33,1.38,2.79,2.79,0,0,0,.89.95,3.85,3.85,0,0,0,1.25.52,5.79,5.79,0,0,0,1.38.16,5.28,5.28,0,0,0,2.19-.42,4.49,4.49,0,0,0,2.48-2.82,6.82,6.82,0,0,0,.3-2.05v-1.19Z" transform="translate(-4.19 -8.57)"/><path d="M131.3,138.76c0-.72,0-1.46-.05-2.21s-.07-1.71-.09-2.9h2.27v3h.07a5.29,5.29,0,0,1,.7-1.27,5.56,5.56,0,0,1,1.11-1.11,5.32,5.32,0,0,1,1.5-.78,5.85,5.85,0,0,1,1.94-.3,6.28,6.28,0,0,1,1.72.21l-.46,2.27a4,4,0,0,0-1.33-.17,4.73,4.73,0,0,0-2.27.51,5,5,0,0,0-1.58,1.29,5.23,5.23,0,0,0-.92,1.7,5.6,5.6,0,0,0-.3,1.75V150H131.3Z" transform="translate(-4.19 -8.57)"/><path d="M142.67,123.57H145v12.81h.07a6.31,6.31,0,0,1,1.33-1.44,9,9,0,0,1,1.61-1,8.21,8.21,0,0,1,1.74-.56,9.31,9.31,0,0,1,1.69-.17,9.08,9.08,0,0,1,3.52.65,8.08,8.08,0,0,1,4.55,4.53,9.37,9.37,0,0,1,0,6.86,8.08,8.08,0,0,1-4.55,4.53,9.27,9.27,0,0,1-3.52.65,8.54,8.54,0,0,1-1.69-.18,7.21,7.21,0,0,1-1.74-.56,8,8,0,0,1-1.61-1,6.06,6.06,0,0,1-1.33-1.43H145V150h-2.31Zm15,18.27a7.44,7.44,0,0,0-.44-2.56,6,6,0,0,0-1.24-2.06,5.73,5.73,0,0,0-1.94-1.38,6.25,6.25,0,0,0-2.58-.51,6.58,6.58,0,0,0-2.62.51,6.25,6.25,0,0,0-3.43,3.44,6.63,6.63,0,0,0-.49,2.56,6.55,6.55,0,0,0,.49,2.55,6.26,6.26,0,0,0,1.36,2.07,6.7,6.7,0,0,0,2.07,1.38,6.58,6.58,0,0,0,2.62.51,6.25,6.25,0,0,0,2.58-.51,5.85,5.85,0,0,0,3.18-3.45A7.34,7.34,0,0,0,157.62,141.84Z" transform="translate(-4.19 -8.57)"/><path d="M180.61,141.84a9,9,0,0,1-.64,3.43,8.4,8.4,0,0,1-1.81,2.73,8.16,8.16,0,0,1-2.74,1.8,9.34,9.34,0,0,1-3.52.65,9.17,9.17,0,0,1-3.48-.65,8.11,8.11,0,0,1-2.75-1.8,8.22,8.22,0,0,1-1.8-2.73,9.37,9.37,0,0,1,0-6.86,8.22,8.22,0,0,1,1.8-2.73,8.11,8.11,0,0,1,2.75-1.8,9,9,0,0,1,3.48-.65,9.15,9.15,0,0,1,3.52.65,8.16,8.16,0,0,1,2.74,1.8,8.4,8.4,0,0,1,1.81,2.73A9,9,0,0,1,180.61,141.84Zm-2.52,0a7.44,7.44,0,0,0-.43-2.56,6.22,6.22,0,0,0-1.25-2.06,5.54,5.54,0,0,0-1.94-1.38,6.24,6.24,0,0,0-2.57-.51,6.17,6.17,0,0,0-2.57.51,5.5,5.5,0,0,0-1.93,1.38,6.32,6.32,0,0,0-1.22,2.06,7.21,7.21,0,0,0-.44,2.56,7.12,7.12,0,0,0,.44,2.55,6.27,6.27,0,0,0,1.22,2.07,5.76,5.76,0,0,0,1.93,1.38,6.17,6.17,0,0,0,2.57.51,6.24,6.24,0,0,0,2.57-.51,5.8,5.8,0,0,0,1.94-1.38,6.16,6.16,0,0,0,1.25-2.07A7.34,7.34,0,0,0,178.09,141.84Z" transform="translate(-4.19 -8.57)"/><path d="M201.37,141.84a9,9,0,0,1-.65,3.43,8.08,8.08,0,0,1-4.55,4.53,9.27,9.27,0,0,1-3.52.65,9.17,9.17,0,0,1-3.48-.65,8.08,8.08,0,0,1-4.55-4.53,9.37,9.37,0,0,1,0-6.86,8.08,8.08,0,0,1,4.55-4.53,9,9,0,0,1,3.48-.65,9.08,9.08,0,0,1,3.52.65,8.08,8.08,0,0,1,4.55,4.53A9,9,0,0,1,201.37,141.84Zm-2.52,0a7.44,7.44,0,0,0-.44-2.56,6.2,6.2,0,0,0-1.24-2.06,5.73,5.73,0,0,0-1.94-1.38,6.76,6.76,0,0,0-5.15,0,5.37,5.37,0,0,0-1.92,1.38,6.17,6.17,0,0,0-1.23,2.06,7.44,7.44,0,0,0-.44,2.56,7.34,7.34,0,0,0,.44,2.55,6.12,6.12,0,0,0,1.23,2.07,5.62,5.62,0,0,0,1.92,1.38,6.76,6.76,0,0,0,5.15,0,6,6,0,0,0,1.94-1.38,6.14,6.14,0,0,0,1.24-2.07A7.34,7.34,0,0,0,198.85,141.84Z" transform="translate(-4.19 -8.57)"/><path d="M207.88,141l7.73-7.38h3.47l-8.16,7.49,9,8.89h-3.57l-8.5-8.61V150h-2.31V123.57h2.31Z" transform="translate(-4.19 -8.57)"/><path d="M224.5,154.93h-2.31l2.35-8.23h2.83Z" transform="translate(-4.19 -8.57)"/><path d="M241.9,133.65h2.31v2.73h.07a5.9,5.9,0,0,1,1.33-1.44,8.67,8.67,0,0,1,1.61-1,8.13,8.13,0,0,1,1.73-.56,9.33,9.33,0,0,1,1.7-.17,9.07,9.07,0,0,1,3.51.65,8.11,8.11,0,0,1,2.75,1.8,8.22,8.22,0,0,1,1.8,2.73,9.37,9.37,0,0,1,0,6.86,8.22,8.22,0,0,1-1.8,2.73,8.11,8.11,0,0,1-2.75,1.8,9.26,9.26,0,0,1-3.51.65,8.55,8.55,0,0,1-1.7-.18,7.14,7.14,0,0,1-1.73-.56,7.71,7.71,0,0,1-1.61-1,5.68,5.68,0,0,1-1.33-1.43h-.07v12.81H241.9Zm14.94,8.19a7.21,7.21,0,0,0-.44-2.56,6,6,0,0,0-1.24-2.06,5.54,5.54,0,0,0-1.94-1.38,6.24,6.24,0,0,0-2.57-.51,6.6,6.6,0,0,0-2.63.51,6.33,6.33,0,0,0-3.43,3.44,6.82,6.82,0,0,0-.49,2.56,6.73,6.73,0,0,0,.49,2.55,6.14,6.14,0,0,0,1.37,2.07,6.51,6.51,0,0,0,4.69,1.89,6.24,6.24,0,0,0,2.57-.51,5.8,5.8,0,0,0,1.94-1.38,6,6,0,0,0,1.24-2.07A7.12,7.12,0,0,0,256.84,141.84Z" transform="translate(-4.19 -8.57)"/><path d="M263.28,123.57h2.31v12.7h.07a5.36,5.36,0,0,1,1-1.22,6.35,6.35,0,0,1,1.33-1,7.08,7.08,0,0,1,1.56-.63,5.78,5.78,0,0,1,1.63-.23,6,6,0,0,1,4.65,1.66,6.85,6.85,0,0,1,1.51,4.74V150H275V141a7.67,7.67,0,0,0-.95-4.18c-.63-1-1.8-1.45-3.5-1.45a9.85,9.85,0,0,0-1,.14,4.24,4.24,0,0,0-1.7.77,5.65,5.65,0,0,0-1.59,1.89,7.21,7.21,0,0,0-.7,3.5V150h-2.31Z" transform="translate(-4.19 -8.57)"/><path d="M299.3,141.84a9,9,0,0,1-.65,3.43,8.08,8.08,0,0,1-4.55,4.53,9.31,9.31,0,0,1-3.52.65,9.17,9.17,0,0,1-3.48-.65,8.08,8.08,0,0,1-4.55-4.53,9.37,9.37,0,0,1,0-6.86,8.08,8.08,0,0,1,4.55-4.53,9,9,0,0,1,3.48-.65,9.12,9.12,0,0,1,3.52.65,8.08,8.08,0,0,1,4.55,4.53A9,9,0,0,1,299.3,141.84Zm-2.52,0a7.44,7.44,0,0,0-.44-2.56,6.2,6.2,0,0,0-1.24-2.06,5.67,5.67,0,0,0-2-1.38,6.73,6.73,0,0,0-5.14,0,5.5,5.5,0,0,0-1.93,1.38,6.32,6.32,0,0,0-1.22,2.06,7.44,7.44,0,0,0-.44,2.56,7.34,7.34,0,0,0,.44,2.55,6.27,6.27,0,0,0,1.22,2.07,5.76,5.76,0,0,0,1.93,1.38,6.73,6.73,0,0,0,5.14,0,6,6,0,0,0,2-1.38,6.14,6.14,0,0,0,1.24-2.07A7.34,7.34,0,0,0,296.78,141.84Z" transform="translate(-4.19 -8.57)"/><path d="M312,135.75h-4.73v9.66a5.18,5.18,0,0,0,.18,1.49,2,2,0,0,0,.49.89,1.78,1.78,0,0,0,.75.44,3.6,3.6,0,0,0,1,.12,4.47,4.47,0,0,0,1.23-.18,5.1,5.1,0,0,0,1.15-.45l.11,2.13a7.42,7.42,0,0,1-3.12.6,5.69,5.69,0,0,1-1.38-.18,3.07,3.07,0,0,1-1.31-.66,3.58,3.58,0,0,1-1-1.33,5.31,5.31,0,0,1-.39-2.21V135.75h-3.46v-2.1h3.46V129h2.31v4.62H312Z" transform="translate(-4.19 -8.57)"/><path d="M331.67,141.84a9,9,0,0,1-.65,3.43,8.08,8.08,0,0,1-4.55,4.53,9.75,9.75,0,0,1-7,0,8.16,8.16,0,0,1-2.74-1.8,8.24,8.24,0,0,1-1.81-2.73,9.37,9.37,0,0,1,0-6.86,8.24,8.24,0,0,1,1.81-2.73,8.16,8.16,0,0,1,2.74-1.8,9.75,9.75,0,0,1,7,0,8.08,8.08,0,0,1,4.55,4.53A9,9,0,0,1,331.67,141.84Zm-2.52,0a7.44,7.44,0,0,0-.44-2.56,6,6,0,0,0-1.24-2.06,5.63,5.63,0,0,0-1.94-1.38,6.76,6.76,0,0,0-5.15,0,5.37,5.37,0,0,0-1.92,1.38,6.17,6.17,0,0,0-1.23,2.06,7.44,7.44,0,0,0-.43,2.56,7.34,7.34,0,0,0,.43,2.55,6.12,6.12,0,0,0,1.23,2.07,5.62,5.62,0,0,0,1.92,1.38,6.76,6.76,0,0,0,5.15,0,5.91,5.91,0,0,0,1.94-1.38,6,6,0,0,0,1.24-2.07A7.34,7.34,0,0,0,329.15,141.84Z" transform="translate(-4.19 -8.57)"/><path d="M337.13,153.32a7.46,7.46,0,0,0,2.64,2.19,8,8,0,0,0,3.63.82,7.75,7.75,0,0,0,3-.51,5.17,5.17,0,0,0,2-1.38,5.38,5.38,0,0,0,1.08-2.05,9.21,9.21,0,0,0,.34-2.5V147h-.08a6.29,6.29,0,0,1-2.72,2.38,8.41,8.41,0,0,1-3.4.7,8.82,8.82,0,0,1-3.34-.63,8.44,8.44,0,0,1-2.71-1.73,8,8,0,0,1-1.83-2.65,8.3,8.3,0,0,1-.66-3.32,8.62,8.62,0,0,1,2.36-6,7.8,7.8,0,0,1,2.63-1.8,8.29,8.29,0,0,1,3.34-.65,9.71,9.71,0,0,1,1.56.14,7.3,7.3,0,0,1,1.64.49,7.46,7.46,0,0,1,3.13,2.52h.08v-2.73h2.3v16.24a13.24,13.24,0,0,1-.33,2.83,7,7,0,0,1-1.29,2.77,7.39,7.39,0,0,1-2.68,2.1,10.23,10.23,0,0,1-4.48.84,11.16,11.16,0,0,1-4.37-.81,10,10,0,0,1-3.5-2.48Zm.42-11.69a6.37,6.37,0,0,0,.47,2.43,6.57,6.57,0,0,0,1.3,2,6.38,6.38,0,0,0,1.92,1.36,5.68,5.68,0,0,0,2.4.51,6.29,6.29,0,0,0,2.4-.46,6.36,6.36,0,0,0,2-1.27,5.71,5.71,0,0,0,1.35-2,6.5,6.5,0,0,0,.44-2.59,7.13,7.13,0,0,0-.42-2.43,5.77,5.77,0,0,0-3.19-3.36,6.33,6.33,0,0,0-2.59-.51,5.68,5.68,0,0,0-2.4.51,6.21,6.21,0,0,0-1.92,1.36,6.45,6.45,0,0,0-1.3,2A6.3,6.3,0,0,0,337.55,141.63Z" transform="translate(-4.19 -8.57)"/><path d="M357.5,138.76c0-.72,0-1.46-.05-2.21s-.07-1.71-.09-2.9h2.28v3h.06a5.29,5.29,0,0,1,.7-1.27,5.83,5.83,0,0,1,1.11-1.11,5.32,5.32,0,0,1,1.5-.78,5.85,5.85,0,0,1,1.94-.3,6.28,6.28,0,0,1,1.72.21l-.45,2.27a4.12,4.12,0,0,0-1.33-.17,4.74,4.74,0,0,0-2.28.51,5,5,0,0,0-1.58,1.29,5.42,5.42,0,0,0-.92,1.7,5.6,5.6,0,0,0-.3,1.75V150H357.5Z" transform="translate(-4.19 -8.57)"/><path d="M379.37,140v-.42q0-4.23-4.2-4.23a7.23,7.23,0,0,0-5,1.92l-1.4-1.64q2.31-2.38,6.93-2.38a7.31,7.31,0,0,1,2.29.35,5.06,5.06,0,0,1,3.2,2.87,6.2,6.2,0,0,1,.49,2.59v7.31q0,.94.09,2c.06.69.12,1.26.19,1.7h-2.24a11.94,11.94,0,0,1-.15-1.3c0-.46-.06-.92-.06-1.36h-.07a6.19,6.19,0,0,1-2.39,2.36,7.28,7.28,0,0,1-3.38.72,7.4,7.4,0,0,1-2.1-.3,5.27,5.27,0,0,1-1.8-.91,4.55,4.55,0,0,1-1.26-1.5,4.36,4.36,0,0,1-.48-2.09,4.48,4.48,0,0,1,1-3.13,6.3,6.3,0,0,1,2.59-1.7,13.05,13.05,0,0,1,3.32-.7c1.18-.09,2.26-.14,3.24-.14Zm-1.19,1.89c-.58,0-1.31,0-2.18.09a12.75,12.75,0,0,0-2.52.42,5.59,5.59,0,0,0-2.07,1,2.37,2.37,0,0,0-.86,1.93,2.62,2.62,0,0,0,.34,1.38,2.79,2.79,0,0,0,.89.95,3.8,3.8,0,0,0,1.24.52,5.91,5.91,0,0,0,1.38.16,5.28,5.28,0,0,0,2.19-.42,4.5,4.5,0,0,0,1.56-1.14,4.6,4.6,0,0,0,.93-1.68,7.15,7.15,0,0,0,.29-2.05v-1.19Z" transform="translate(-4.19 -8.57)"/><path d="M387,133.65h2.31v2.73h.07a6.1,6.1,0,0,1,1.33-1.44,8.67,8.67,0,0,1,1.61-1,8.32,8.32,0,0,1,1.73-.56,9.41,9.41,0,0,1,1.7-.17,9.15,9.15,0,0,1,3.52.65,8.16,8.16,0,0,1,2.74,1.8,8.4,8.4,0,0,1,1.81,2.73,9.51,9.51,0,0,1,0,6.86,8.4,8.4,0,0,1-1.81,2.73,8.16,8.16,0,0,1-2.74,1.8,9.34,9.34,0,0,1-3.52.65,8.63,8.63,0,0,1-1.7-.18,7.28,7.28,0,0,1-1.73-.56,7.71,7.71,0,0,1-1.61-1,5.86,5.86,0,0,1-1.33-1.43h-.07v12.81H387ZM402,141.84a7.44,7.44,0,0,0-.43-2.56,6.22,6.22,0,0,0-1.25-2.06,5.54,5.54,0,0,0-1.94-1.38,6.21,6.21,0,0,0-2.57-.51,6.63,6.63,0,0,0-2.63.51,6.22,6.22,0,0,0-2.06,1.38,6.35,6.35,0,0,0-1.37,2.06,6.82,6.82,0,0,0-.49,2.56,6.73,6.73,0,0,0,.49,2.55,6.29,6.29,0,0,0,1.37,2.07,6.54,6.54,0,0,0,2.06,1.38,6.63,6.63,0,0,0,2.63.51,6.21,6.21,0,0,0,2.57-.51,5.8,5.8,0,0,0,1.94-1.38,6.16,6.16,0,0,0,1.25-2.07A7.34,7.34,0,0,0,402,141.84Z" transform="translate(-4.19 -8.57)"/><path d="M408.42,123.57h2.31v12.7h.07a5.65,5.65,0,0,1,1-1.22,6.35,6.35,0,0,1,1.33-1,7.08,7.08,0,0,1,1.56-.63,5.78,5.78,0,0,1,1.63-.23,6,6,0,0,1,4.65,1.66,6.8,6.8,0,0,1,1.51,4.74V150h-2.31V141a7.67,7.67,0,0,0-.95-4.18c-.63-1-1.79-1.45-3.5-1.45-.11,0-.44,0-1,.14a4.2,4.2,0,0,0-1.69.77,5.56,5.56,0,0,0-1.6,1.89,7.33,7.33,0,0,0-.7,3.5V150h-2.31Z" transform="translate(-4.19 -8.57)"/><path d="M434,147.19l5-13.54h2.8l-8.19,20.65a8.6,8.6,0,0,1-1.87,3,4.51,4.51,0,0,1-3.28,1.12c-.35,0-.7,0-1.06,0a3.91,3.91,0,0,1-1.07-.21l.24-2.24a3.7,3.7,0,0,0,1.75.39,2.49,2.49,0,0,0,1.93-.77,6.84,6.84,0,0,0,1.22-2.17l1.19-3.15-6.72-16.59h2.91Z" transform="translate(-4.19 -8.57)"/><path d="M470.48,144.29,476,150h-3.57l-3.5-3.64a13.38,13.38,0,0,1-3.29,3.13,7.64,7.64,0,0,1-4.27,1.14,9.39,9.39,0,0,1-3-.47A7.39,7.39,0,0,1,456,148.8a6.58,6.58,0,0,1-1.7-2.22,6.81,6.81,0,0,1-.63-3,6.46,6.46,0,0,1,.46-2.49,7.18,7.18,0,0,1,1.24-2,10.56,10.56,0,0,1,1.8-1.59,14.64,14.64,0,0,1,2.14-1.23,15.57,15.57,0,0,1-2-2.64,5.9,5.9,0,0,1-.9-3.17,6.06,6.06,0,0,1,.48-2.48,5.2,5.2,0,0,1,1.31-1.84,5.71,5.71,0,0,1,2-1.14,7.67,7.67,0,0,1,2.45-.38,7,7,0,0,1,2.31.37,5.84,5.84,0,0,1,1.91,1.06,5,5,0,0,1,1.29,1.74,5.57,5.57,0,0,1,.47,2.39,4.71,4.71,0,0,1-.49,2.19,6.75,6.75,0,0,1-1.27,1.75,10.1,10.1,0,0,1-1.77,1.4c-.65.41-1.3.78-1.93,1.1l5.71,5.88,3.39-5.88H475Zm-9.63-6.44c-.81.47-1.51.9-2.08,1.31a6.42,6.42,0,0,0-1.38,1.3,4.62,4.62,0,0,0-.77,1.45,5.69,5.69,0,0,0-.25,1.71,4.4,4.4,0,0,0,.42,1.93,4.75,4.75,0,0,0,1.12,1.49,5.78,5.78,0,0,0,1.61,1,5.41,5.41,0,0,0,1.93.35,5.6,5.6,0,0,0,1.84-.28,6.53,6.53,0,0,0,1.54-.77,8.5,8.5,0,0,0,1.34-1.16c.42-.44.83-.92,1.23-1.43Zm5.18-7.67a3,3,0,0,0-1-2.36,3.56,3.56,0,0,0-2.44-.89,3.77,3.77,0,0,0-2.64,1,3.44,3.44,0,0,0-1.07,2.66,3.23,3.23,0,0,0,.3,1.31,7.88,7.88,0,0,0,.7,1.28,13.81,13.81,0,0,0,.84,1.1,5.23,5.23,0,0,0,.75.75c.47-.28,1-.56,1.51-.85a10.47,10.47,0,0,0,1.49-1,5.15,5.15,0,0,0,1.12-1.3A3.23,3.23,0,0,0,466,130.18Z" transform="translate(-4.19 -8.57)"/><path d="M505.2,150h-2.31V147.3h-.07a5.86,5.86,0,0,1-1.33,1.43,7.71,7.71,0,0,1-1.61,1,7.28,7.28,0,0,1-1.73.56,8.63,8.63,0,0,1-1.7.18,9.31,9.31,0,0,1-3.52-.65,8.08,8.08,0,0,1-4.55-4.53,9.37,9.37,0,0,1,0-6.86,8.08,8.08,0,0,1,4.55-4.53,9.12,9.12,0,0,1,3.52-.65,9.41,9.41,0,0,1,1.7.17,8.32,8.32,0,0,1,1.73.56,8.67,8.67,0,0,1,1.61,1,6.1,6.1,0,0,1,1.33,1.44h.07V123.57h2.31Zm-14.95-8.19a7.34,7.34,0,0,0,.44,2.55,6.14,6.14,0,0,0,1.24,2.07,6,6,0,0,0,1.95,1.38,6.17,6.17,0,0,0,2.57.51,6.67,6.67,0,0,0,2.61-.51,6.52,6.52,0,0,0,2.08-1.38,6.11,6.11,0,0,0,1.36-2.07,6.55,6.55,0,0,0,.49-2.55,6.63,6.63,0,0,0-.49-2.56,6.22,6.22,0,0,0-3.44-3.44,6.67,6.67,0,0,0-2.61-.51,6.17,6.17,0,0,0-2.57.51,5.67,5.67,0,0,0-1.95,1.38,6.2,6.2,0,0,0-1.24,2.06A7.44,7.44,0,0,0,490.25,141.84Z" transform="translate(-4.19 -8.57)"/><path d="M511.85,142.47a7.21,7.21,0,0,0,.59,2.31,6.09,6.09,0,0,0,1.3,1.87,6,6,0,0,0,1.85,1.24,5.56,5.56,0,0,0,2.28.46,5.84,5.84,0,0,0,3.2-.86,6.39,6.39,0,0,0,2-2L524.9,147a8.83,8.83,0,0,1-3.23,2.66,9,9,0,0,1-3.8.81,8.77,8.77,0,0,1-3.38-.65,7.91,7.91,0,0,1-2.68-1.8,8.61,8.61,0,0,1-1.76-2.73,8.77,8.77,0,0,1-.65-3.43,9.14,9.14,0,0,1,.63-3.43,8.25,8.25,0,0,1,1.75-2.73,8.41,8.41,0,0,1,9.2-1.79,7.27,7.27,0,0,1,4,4.36,9.46,9.46,0,0,1,.53,3.17v1.05ZM523,140.58a5.25,5.25,0,0,0-1.4-3.8,5.18,5.18,0,0,0-3.92-1.45,5.43,5.43,0,0,0-2.17.44,6.14,6.14,0,0,0-1.84,1.17,6.07,6.07,0,0,0-1.26,1.68,4.38,4.38,0,0,0-.47,2Z" transform="translate(-4.19 -8.57)"/><path d="M538.38,137.53a4.39,4.39,0,0,0-1.4-1.61,3.77,3.77,0,0,0-2.14-.59,5.53,5.53,0,0,0-1.2.14,3.63,3.63,0,0,0-1.11.44,2.34,2.34,0,0,0-.78.75,2,2,0,0,0-.3,1.12,1.87,1.87,0,0,0,.8,1.68,8,8,0,0,0,2.42.91l2.34.56a5.55,5.55,0,0,1,2.86,1.56,4,4,0,0,1,1.13,2.92,4.59,4.59,0,0,1-.54,2.29,4.72,4.72,0,0,1-1.43,1.58,6.44,6.44,0,0,1-2,.89,10.28,10.28,0,0,1-2.35.28,8.54,8.54,0,0,1-3.51-.72,6.48,6.48,0,0,1-2.79-2.47l2-1.36a5.29,5.29,0,0,0,1.77,1.78,4.62,4.62,0,0,0,2.53.67,6,6,0,0,0,1.4-.16,4.08,4.08,0,0,0,1.25-.49,2.65,2.65,0,0,0,.87-.86,2.23,2.23,0,0,0,.33-1.22,1.89,1.89,0,0,0-.91-1.77,8,8,0,0,0-2.2-.86l-2.24-.52c-.28-.07-.66-.19-1.14-.35a5.26,5.26,0,0,1-1.4-.74,4.48,4.48,0,0,1-1.17-1.27,3.62,3.62,0,0,1-.49-2,4.55,4.55,0,0,1,.51-2.2,4.3,4.3,0,0,1,1.36-1.54,6,6,0,0,1,1.94-.89,8.4,8.4,0,0,1,2.24-.3,7.69,7.69,0,0,1,3.19.66,4.66,4.66,0,0,1,2.27,2.28Z" transform="translate(-4.19 -8.57)"/><path d="M548,127.35a1.57,1.57,0,0,1-.53,1.21,1.7,1.7,0,0,1-1.15.47,1.72,1.72,0,0,1-1.16-.47,1.67,1.67,0,0,1,0-2.42,1.72,1.72,0,0,1,1.16-.47,1.7,1.7,0,0,1,1.15.47A1.57,1.57,0,0,1,548,127.35ZM547.44,150h-2.31V133.65h2.31Z" transform="translate(-4.19 -8.57)"/><path d="M554.27,153.32a7.38,7.38,0,0,0,2.64,2.19,8,8,0,0,0,3.62.82,7.77,7.77,0,0,0,3-.51,5.25,5.25,0,0,0,2-1.38,5.38,5.38,0,0,0,1.08-2.05,9.21,9.21,0,0,0,.33-2.5V147h-.07a6.26,6.26,0,0,1-2.73,2.38,8.33,8.33,0,0,1-3.39.7,8.79,8.79,0,0,1-3.34-.63,8.6,8.6,0,0,1-2.72-1.73,8.13,8.13,0,0,1-1.82-2.65,8.3,8.3,0,0,1-.66-3.32,8.62,8.62,0,0,1,2.36-6,7.8,7.8,0,0,1,2.63-1.8,8.29,8.29,0,0,1,3.34-.65,9.71,9.71,0,0,1,1.56.14,7.46,7.46,0,0,1,4.77,3h.07v-2.73h2.31v16.24a13.24,13.24,0,0,1-.33,2.83,7,7,0,0,1-1.29,2.77,7.48,7.48,0,0,1-2.68,2.1,10.26,10.26,0,0,1-4.48.84,11.21,11.21,0,0,1-4.38-.81,10.09,10.09,0,0,1-3.5-2.48Zm.42-11.69a6.37,6.37,0,0,0,.47,2.43,6.57,6.57,0,0,0,1.3,2,6.26,6.26,0,0,0,1.92,1.36,5.68,5.68,0,0,0,2.4.51,6.29,6.29,0,0,0,2.4-.46,6.59,6.59,0,0,0,2-1.27,5.71,5.71,0,0,0,1.35-2,6.33,6.33,0,0,0,.43-2.59,6.89,6.89,0,0,0-.42-2.43,5.76,5.76,0,0,0-1.22-2,5.84,5.84,0,0,0-2-1.36,6.37,6.37,0,0,0-2.59-.51,5.68,5.68,0,0,0-2.4.51,6.09,6.09,0,0,0-1.92,1.36,6.45,6.45,0,0,0-1.3,2A6.3,6.3,0,0,0,554.69,141.63Z" transform="translate(-4.19 -8.57)"/><path d="M576.6,133.65c0,.44.07.88.09,1.31s0,.87,0,1.31h.07a5.65,5.65,0,0,1,1-1.22,6.35,6.35,0,0,1,1.33-1,7.08,7.08,0,0,1,1.56-.63,5.78,5.78,0,0,1,1.63-.23,6,6,0,0,1,4.65,1.66,6.8,6.8,0,0,1,1.51,4.74V150h-2.31V141a7.67,7.67,0,0,0-1-4.18c-.63-1-1.79-1.45-3.5-1.45-.11,0-.44,0-1,.14a4.2,4.2,0,0,0-1.69.77,5.56,5.56,0,0,0-1.6,1.89,7.33,7.33,0,0,0-.7,3.5V150h-2.31V137.25c0-.44,0-1,0-1.68s-.08-1.31-.12-1.92Z" transform="translate(-4.19 -8.57)"/><path d="M615.52,137.5a4.94,4.94,0,0,0-1.66-1.54,4.74,4.74,0,0,0-2.44-.63,6.07,6.07,0,0,0-2.57.45,5.74,5.74,0,0,0-1.94,1.37,5.86,5.86,0,0,0-1.23,2.08,8.32,8.32,0,0,0,0,5.22,5.86,5.86,0,0,0,1.23,2.08,5.58,5.58,0,0,0,1.94,1.36,6.07,6.07,0,0,0,2.57.46,4.74,4.74,0,0,0,2.44-.63,4.94,4.94,0,0,0,1.66-1.54l1.89,1.43a7.71,7.71,0,0,1-2.77,2.12,8.13,8.13,0,0,1-3.22.72,9.2,9.2,0,0,1-3.6-.61,8.18,8.18,0,0,1-2.75-1.81,7.71,7.71,0,0,1-1.73-2.74,10.22,10.22,0,0,1,0-6.9,7.75,7.75,0,0,1,1.73-2.75,8,8,0,0,1,2.75-1.8,9.2,9.2,0,0,1,3.6-.61,8.13,8.13,0,0,1,3.22.72,7.79,7.79,0,0,1,2.77,2.11Z" transform="translate(-4.19 -8.57)"/><path d="M623.29,150H621V123.57h2.31Z" transform="translate(-4.19 -8.57)"/><path d="M640.68,150c0-.44-.07-.88-.08-1.31s0-.87,0-1.32h-.07a5.47,5.47,0,0,1-1,1.23,6.73,6.73,0,0,1-1.33,1,7.08,7.08,0,0,1-1.56.63,6.17,6.17,0,0,1-1.63.23,6,6,0,0,1-4.65-1.66,6.81,6.81,0,0,1-1.51-4.75V133.65h2.31v9.06a12.46,12.46,0,0,0,.21,2.42,4.58,4.58,0,0,0,.72,1.77,3.14,3.14,0,0,0,1.37,1.08,5.35,5.35,0,0,0,2.15.37c.11,0,.44,0,1-.14a4.3,4.3,0,0,0,1.7-.77,5.65,5.65,0,0,0,1.59-1.89,7.35,7.35,0,0,0,.7-3.5v-8.4h2.31v12.77c0,.45,0,1,.05,1.68s.08,1.32.12,1.93Z" transform="translate(-4.19 -8.57)"/><path d="M648.31,123.57h2.31v12.81h.07a6.31,6.31,0,0,1,1.33-1.44,9,9,0,0,1,1.61-1,8.21,8.21,0,0,1,1.74-.56,9.31,9.31,0,0,1,1.69-.17,9.08,9.08,0,0,1,3.52.65,8.08,8.08,0,0,1,4.55,4.53,9.37,9.37,0,0,1,0,6.86,8.08,8.08,0,0,1-4.55,4.53,9.27,9.27,0,0,1-3.52.65,8.54,8.54,0,0,1-1.69-.18,7.21,7.21,0,0,1-1.74-.56,8,8,0,0,1-1.61-1,6.06,6.06,0,0,1-1.33-1.43h-.07V150h-2.31Zm15,18.27a7.44,7.44,0,0,0-.44-2.56,6.2,6.2,0,0,0-1.24-2.06,5.73,5.73,0,0,0-1.94-1.38,6.25,6.25,0,0,0-2.58-.51,6.58,6.58,0,0,0-2.62.51,6.26,6.26,0,0,0-2.07,1.38,6.17,6.17,0,0,0-1.36,2.06,6.63,6.63,0,0,0-.49,2.56,6.55,6.55,0,0,0,.49,2.55,6.11,6.11,0,0,0,1.36,2.07,6.56,6.56,0,0,0,4.69,1.89,6.25,6.25,0,0,0,2.58-.51,6,6,0,0,0,1.94-1.38,6.14,6.14,0,0,0,1.24-2.07A7.34,7.34,0,0,0,663.26,141.84Z" transform="translate(-4.19 -8.57)"/><path d="M696,141.84a9,9,0,0,1-.64,3.43,8.4,8.4,0,0,1-1.81,2.73,8.16,8.16,0,0,1-2.74,1.8,9.34,9.34,0,0,1-3.52.65,9.17,9.17,0,0,1-3.48-.65A8.11,8.11,0,0,1,681,148a8.22,8.22,0,0,1-1.8-2.73,9.37,9.37,0,0,1,0-6.86,8.22,8.22,0,0,1,1.8-2.73,8.11,8.11,0,0,1,2.75-1.8,9,9,0,0,1,3.48-.65,9.15,9.15,0,0,1,3.52.65,8.16,8.16,0,0,1,2.74,1.8,8.4,8.4,0,0,1,1.81,2.73A9,9,0,0,1,696,141.84Zm-2.52,0a7.44,7.44,0,0,0-.43-2.56,6.22,6.22,0,0,0-1.25-2.06,5.54,5.54,0,0,0-1.94-1.38,6.24,6.24,0,0,0-2.57-.51,6.17,6.17,0,0,0-2.57.51,5.5,5.5,0,0,0-1.93,1.38,6.32,6.32,0,0,0-1.22,2.06,7.21,7.21,0,0,0-.44,2.56,7.12,7.12,0,0,0,.44,2.55,6.27,6.27,0,0,0,1.22,2.07,5.76,5.76,0,0,0,1.93,1.38,6.17,6.17,0,0,0,2.57.51,6.24,6.24,0,0,0,2.57-.51,5.8,5.8,0,0,0,1.94-1.38,6.16,6.16,0,0,0,1.25-2.07A7.34,7.34,0,0,0,693.46,141.84Z" transform="translate(-4.19 -8.57)"/><path d="M707.81,135.75h-3.88V150h-2.31V135.75h-3.47v-2.1h3.47v-4.48q0-3.25,1.5-4.64a5.7,5.7,0,0,1,4-1.38,6.82,6.82,0,0,1,1,.07c.34,0,.67.1,1,.17l-.42,2.1c-.28-.07-.57-.12-.88-.17a5.49,5.49,0,0,0-.91-.07,3.3,3.3,0,0,0-1.54.31,2.19,2.19,0,0,0-.91.9,3.84,3.84,0,0,0-.42,1.34,12.4,12.4,0,0,0-.1,1.65v4.2h3.88Z" transform="translate(-4.19 -8.57)"/><path d="M733.33,145.41l8.36-20.16h3.85V150H743V128.61H743L734,150h-1.33l-9-21.42h-.07V150h-2.52V125.25H725Z" transform="translate(-4.19 -8.57)"/><path d="M754.78,150h-2.52V125.25h2.52Z" transform="translate(-4.19 -8.57)"/><path d="M769.45,150h-2.52V127.56h-8.3v-2.31h19.11v2.31h-8.29Z" transform="translate(-4.19 -8.57)"/></svg>